<svg width="800" height="400" viewBox="0 0 800 400" xmlns="http://www.w3.org/2000/svg">
  <defs>
    <linearGradient id="heroGradient" x1="0%" y1="0%" x2="100%" y2="100%">
      <stop offset="0%" style="stop-color:#667eea;stop-opacity:1" />
      <stop offset="100%" style="stop-color:#764ba2;stop-opacity:1" />
    </linearGradient>
    <linearGradient id="acGradient" x1="0%" y1="0%" x2="100%" y2="100%">
      <stop offset="0%" style="stop-color:#4a90e2;stop-opacity:1" />
      <stop offset="100%" style="stop-color:#357abd;stop-opacity:1" />
    </linearGradient>
  </defs>
  
  <!-- Background -->
  <rect width="800" height="400" fill="url(#heroGradient)"/>
  
  <!-- Air conditioning unit -->
  <rect x="200" y="150" width="400" height="200" rx="20" fill="url(#acGradient)" stroke="#2c5aa0" stroke-width="3"/>
  
  <!-- AC vents -->
  <rect x="250" y="180" width="300" height="20" rx="10" fill="#e8f4fd"/>
  <rect x="250" y="220" width="300" height="20" rx="10" fill="#e8f4fd"/>
  <rect x="250" y="260" width="300" height="20" rx="10" fill="#e8f4fd"/>
  
  <!-- Control panel -->
  <rect x="320" y="300" width="160" height="40" rx="20" fill="#2c5aa0"/>
  <circle cx="340" cy="320" r="8" fill="#4a90e2"/>
  <circle cx="360" cy="320" r="8" fill="#4a90e2"/>
  <circle cx="380" cy="320" r="8" fill="#4a90e2"/>
  <circle cx="400" cy="320" r="8" fill="#4a90e2"/>
  <circle cx="420" cy="320" r="8" fill="#4a90e2"/>
  <circle cx="440" cy="320" r="8" fill="#4a90e2"/>
  <circle cx="460" cy="320" r="8" fill="#4a90e2"/>
  
  <!-- Cool air effect -->
  <g opacity="0.7">
    <path d="M300 100 Q320 80 340 100 Q360 80 380 100 Q400 80 420 100 Q440 80 460 100 Q480 80 500 100" stroke="#ffffff" stroke-width="3" fill="none"/>
    <path d="M310 120 Q330 100 350 120 Q370 100 390 120 Q410 100 430 120 Q450 100 470 120 Q490 100 510 120" stroke="#ffffff" stroke-width="2" fill="none"/>
    <path d="M320 140 Q340 120 360 140 Q380 120 400 140 Q420 120 440 140 Q460 120 480 140 Q500 120 520 140" stroke="#ffffff" stroke-width="2" fill="none"/>
  </g>
  
  <!-- Professional text overlay -->
  <text x="400" y="80" text-anchor="middle" fill="white" font-family="Arial, sans-serif" font-size="36" font-weight="bold">Professional AC Services</text>
  <text x="400" y="110" text-anchor="middle" fill="white" font-family="Arial, sans-serif" font-size="18" opacity="0.9">Installation • Repair • Maintenance</text>
  
  <!-- Service icons -->
  <g transform="translate(100, 320)">
    <circle cx="0" cy="0" r="25" fill="white" opacity="0.2"/>
    <text x="0" y="8" text-anchor="middle" fill="white" font-family="Arial, sans-serif" font-size="20">🔧</text>
  </g>
  
  <g transform="translate(700, 320)">
    <circle cx="0" cy="0" r="25" fill="white" opacity="0.2"/>
    <text x="0" y="8" text-anchor="middle" fill="white" font-family="Arial, sans-serif" font-size="20">❄️</text>
  </g>
</svg>
